<?xml version="1.0" encoding="utf-8"?>
<!-- Generator: Adobe Illustrator 22.0.0, SVG Export Plug-In . SVG Version: 6.00 Build 0)  -->
<svg version="1.1" id="Layer_1" xmlns="http://www.w3.org/2000/svg" xmlns:xlink="http://www.w3.org/1999/xlink" x="0px" y="0px"
	 width="1400px" height="1000px" viewBox="0 0 1400 1000" enable-background="new 0 0 1400 1000" xml:space="preserve">
<g>
	<rect fill="#262262" width="1400" height="1000"/>
	<g>
		<path fill="#2F2F77" d="M1332.6,726.4h-297.9c-18.2,0-33-14.8-33-33v-3.1c0-18.2,14.8-33,33-33h77.9c16.5,0,29.9-13.4,29.9-29.9v0
			c0-16.5-13.4-29.9-29.9-29.9h-52.1c-18.2,0-33-14.8-33-33v0c0-18.2,14.8-33,33-33h206.1c16.5,0,29.9-13.4,29.9-29.9l0,0
			c0-16.5-13.4-29.9-29.9-29.9h-266.3c-17.4,0-31.4-14.1-31.4-31.4v0c0-17.4,14.1-31.4,31.4-31.4h112.3c16.5,0,29.9-13.4,29.9-29.9
			v0c0-16.5-13.4-29.9-29.9-29.9h-858c-16.5,0-29.9,13.4-29.9,29.9v0c0,16.5,13.4,29.9,29.9,29.9h238.8c17.4,0,31.4,14.1,31.4,31.4
			v0c0,17.4-14.1,31.4-31.4,31.4h-84.8c-16.5,0-29.9,13.4-29.9,29.9l0,0c0,16.5,13.4,29.9,29.9,29.9h278.6c18.2,0,33,14.8,33,33v0
			c0,18.2-14.8,33-33,33H117.9c-16.5,0-29.9,13.4-29.9,29.9v0c0,16.5,13.4,29.9,29.9,29.9h406.7c18.2,0,33,14.8,33,33v3.1
			c0,18.2-14.8,33-33,33h-50c-16.5,0-29.9,13.4-29.9,29.9l0,0c0,16.5,13.4,29.9,29.9,29.9h858c16.5,0,29.9-13.4,29.9-29.9l0,0
			C1362.4,739.7,1349.1,726.4,1332.6,726.4z"/>
		<path fill="#4B4B9B" d="M67.4,658.4h297.9c18.2,0,33-14.8,33-33v-3.1c0-18.2-14.8-33-33-33h-77.9c-16.5,0-29.9-13.4-29.9-29.9v0
			c0-16.5,13.4-29.9,29.9-29.9h52.1c18.2,0,33-14.8,33-33v0c0-18.2-14.8-33-33-33H133.4c-16.5,0-29.9-13.4-29.9-29.9l0,0
			c0-16.5,13.4-29.9,29.9-29.9h266.3c17.4,0,31.4-14.1,31.4-31.4v0c0-17.4-14.1-31.4-31.4-31.4H287.4c-16.5,0-29.9-13.4-29.9-29.9v0
			c0-16.5,13.4-29.9,29.9-29.9h858c16.5,0,29.9,13.4,29.9,29.9v0c0,16.5-13.4,29.9-29.9,29.9H906.6c-17.4,0-31.4,14.1-31.4,31.4v0
			c0,17.4,14.1,31.4,31.4,31.4h84.8c16.5,0,29.9,13.4,29.9,29.9l0,0c0,16.5-13.4,29.9-29.9,29.9H712.7c-18.2,0-33,14.8-33,33v0
			c0,18.2,14.8,33,33,33h569.3c16.5,0,29.9,13.4,29.9,29.9v0c0,16.5-13.4,29.9-29.9,29.9H875.4c-18.2,0-33,14.8-33,33v3.1
			c0,18.2,14.8,33,33,33h50c16.5,0,29.9,13.4,29.9,29.9l0,0c0,16.5-13.4,29.9-29.9,29.9h-858c-16.5,0-29.9-13.4-29.9-29.9l0,0
			C37.6,671.8,50.9,658.4,67.4,658.4z"/>
		<g>
			<rect x="653.2" y="738" fill="#F1F2F2" width="111.8" height="48"/>
			<path fill="#6D6E71" d="M934.5,744.6H483.7c-17.2,0-31.1-13.9-31.1-31.1V365.6c0-17.2,13.9-31.1,31.1-31.1h450.8
				c17.2,0,31.1,13.9,31.1,31.1v347.9C965.6,730.6,951.7,744.6,934.5,744.6z"/>
			<path fill="#D1D3D4" d="M483.7,744.6h450.8c17.2,0,31.1-13.9,31.1-31.1v-52.6h-513v52.6C452.6,730.6,466.5,744.6,483.7,744.6z"/>
			<rect x="474.1" y="356.4" fill="#FFFFFF" width="471.9" height="283.6"/>
			<path fill="#6D6E71" d="M808.9,808H609.3c-7.6,0-13.8-6.2-13.8-13.8l0,0c0-7.6,6.2-13.8,13.8-13.8h199.6
				c7.6,0,13.8,6.2,13.8,13.8l0,0C822.7,801.8,816.5,808,808.9,808z"/>
			<circle fill="#6D6E71" cx="709.1" cy="701.6" r="10.2"/>
			<rect x="494.5" y="381.7" fill="#F1F2F2" width="431.1" height="238.4"/>
			<rect x="525.1" y="401.9" fill="#FFFFFF" width="370" height="197.9"/>
			<rect x="525.1" y="401.9" fill="#D1D3D4" width="370" height="22.4"/>
			<g>
				<circle fill="#F24738" cx="534.6" cy="414" r="3.7"/>
				<circle fill="#EAAA5E" cx="546.3" cy="414" r="3.7"/>
				<circle fill="#39B54A" cx="557.9" cy="414" r="3.7"/>
			</g>
			<g>
				<rect x="634.4" y="442.6" fill="#F1F2F2" width="247.3" height="9.5"/>
				<rect x="634.4" y="463.1" fill="#F1F2F2" width="247.3" height="9.5"/>
				<rect x="634.4" y="483.5" fill="#F1F2F2" width="247.3" height="9.5"/>
				<rect x="634.4" y="503.9" fill="#F1F2F2" width="247.3" height="9.5"/>
				<rect x="634.4" y="524.4" fill="#F1F2F2" width="247.3" height="9.5"/>
				<rect x="634.4" y="544.8" fill="#F1F2F2" width="247.3" height="9.5"/>
				<rect x="634.4" y="565.2" fill="#F1F2F2" width="247.3" height="9.5"/>
			</g>
			<rect x="536" y="442.6" fill="#F1F2F2" width="88.7" height="132.1"/>
		</g>
		<g>
			<path fill="#FF5F5F" d="M1002.7,211.6c-61.1,0-110.7,49.6-110.7,110.7S941.6,433,1002.7,433c61.1,0,110.7-49.6,110.7-110.7
				S1063.9,211.6,1002.7,211.6z M1002.7,232.8c21.2,0,40.7,7.4,56,19.7L932.9,378.3c-12.3-15.3-19.7-34.8-19.7-56
				C913.2,272.9,953.3,232.8,1002.7,232.8z M1002.7,411.8c-20.5,0-39.3-6.9-54.4-18.4l125.5-125.5c11.6,15.1,18.4,33.9,18.4,54.4
				C1092.3,371.7,1052.2,411.8,1002.7,411.8z"/>
			<g>
				<path fill="#BCBEC0" d="M1037.2,306.9h-73v-28.3c0-20.1,16.4-36.5,36.5-36.5c20.1,0,36.5,16.4,36.5,36.5V306.9z M974.1,297.1
					h53.3v-18.5c0-14.7-12-26.7-26.7-26.7c-14.7,0-26.7,12-26.7,26.7V297.1z"/>
				<path fill="#538EA6" d="M1037.8,382.3h-74.1c-5.4,0-9.7-4.3-9.7-9.7v-74.1c0-5.4,4.3-9.7,9.7-9.7h74.1c5.4,0,9.7,4.3,9.7,9.7
					v74.1C1047.5,378,1043.2,382.3,1037.8,382.3z"/>
				<path fill="#4A859E" d="M1047.5,372.6v-74.1c0-5.4-4.3-9.7-9.7-9.7h-37.6v93.5h37.6C1043.2,382.3,1047.5,378,1047.5,372.6z"/>
				<path fill="#2A5868" d="M1014.2,361.9l-8.1-35.8c3.7-2,6.2-5.9,6-10.5c-0.2-5.8-5-10.6-10.8-10.8c-6.5-0.3-11.9,4.9-11.9,11.3
					c0,4.3,2.4,8.1,6,10l-8.1,35.8c-0.5,2.3,1.2,4.5,3.6,4.5h19.7C1012.9,366.4,1014.7,364.2,1014.2,361.9z"/>
			</g>
		</g>
		<g>
			<path fill="#F2526E" d="M497.5,278.1H316.6c-12.5,0-22.7,10.2-22.7,22.7v131.9c0,12.5,10.2,22.7,22.7,22.7H490l76.8,21.2
				l-46.7-43.9V300.8C520.2,288.2,510,278.1,497.5,278.1z"/>
			<g>
				<path fill="#FFFFFF" d="M402.9,292c-20.1,0-39.6,8.9-39.6,36.3c0,11.5,6.5,21.8,15.8,28.5v6.1c0,4.7,3.3,8.7,7.7,9.8v-2.7
					c0-1.2,0.9-2.1,2.1-2.1c1.2,0,2.1,0.9,2.1,2.1v3.1h4.9v-3.1c0-1.2,0.9-2.1,2.1-2.1c1.2,0,2.1,0.9,2.1,2.1v3.1h4.9v-3.1
					c0-1.2,0.9-2.1,2.1-2.1c1.2,0,2.1,0.9,2.1,2.1v3.1h4.9v-3.1c0-1.2,0.9-2.1,2.1-2.1c1.2,0,2.1,0.9,2.1,2.1v2.7
					c4.4-1.1,7.7-5.1,7.7-9.8V357c9.4-6.6,15.8-17,15.8-28.7C441.9,300.8,422.9,292,402.9,292z M393.7,342.1
					c-6.1,4.9-14.4,4.8-18.5-0.2s-2.4-13.1,3.8-18.1c6.1-4.9,14.4-4.8,18.5,0.2S399.8,337.2,393.7,342.1z M398.8,353.6l3.8-6.5
					l3.8,6.5H398.8z M429.9,341.9c-4.1,5.1-12.3,5.2-18.5,0.2c-6.1-4.9-7.8-13-3.8-18.1s12.3-5.2,18.5-0.2
					C432.3,328.7,434,336.8,429.9,341.9z"/>
				<g>
					<g>
						<g>
							<path fill="#FFFFFF" d="M456.8,407.9l-96-41.5c2-4.7-0.1-10.2-4.8-12.2c-4.7-2-10.2,0.1-12.2,4.8c-1.5,3.5-0.7,7.3,1.7,9.9
								c-3.5,0.1-6.9,2.1-8.4,5.6c-2,4.7,0.1,10.2,4.8,12.2s10.2-0.1,12.2-4.8l96,41.5c-2,4.7,0.1,10.2,4.8,12.2
								c4.7,2,10.2-0.1,12.2-4.8c1.5-3.5,0.7-7.3-1.7-9.9c3.5-0.1,6.9-2.1,8.4-5.6c2-4.7-0.1-10.2-4.8-12.2
								C464.3,401,458.8,403.2,456.8,407.9z"/>
						</g>
					</g>
					<g>
						<g>
							<path fill="#FFFFFF" d="M348.4,407.9l96-41.5c-2-4.7,0.1-10.2,4.8-12.2c4.7-2,10.2,0.1,12.2,4.8c1.5,3.5,0.7,7.3-1.7,9.9
								c3.5,0.1,6.9,2.1,8.4,5.6c2,4.7-0.1,10.2-4.8,12.2c-4.7,2-10.2-0.1-12.2-4.8l-96,41.5c2,4.7-0.1,10.2-4.8,12.2
								c-4.7,2-10.2-0.1-12.2-4.8c-1.5-3.5-0.7-7.3,1.7-9.9c-3.5-0.1-6.9-2.1-8.4-5.6c-2-4.7,0.1-10.2,4.8-12.2
								C340.9,401,346.3,403.2,348.4,407.9z"/>
						</g>
					</g>
				</g>
			</g>
		</g>
		<g>
			<rect x="856.8" y="483.5" fill="#023852" width="293" height="50.6"/>
			<g>
				<circle fill="#FFFFFF" cx="880.9" cy="508.8" r="5.2"/>
				<circle fill="#FFFFFF" cx="905.4" cy="508.8" r="5.2"/>
				<circle fill="#FFFFFF" cx="929.9" cy="508.8" r="5.2"/>
				<circle fill="#FFFFFF" cx="954.4" cy="508.8" r="5.2"/>
				<circle fill="#FFFFFF" cx="978.8" cy="508.8" r="5.2"/>
				<circle fill="#FFFFFF" cx="1003.3" cy="508.8" r="5.2"/>
				<circle fill="#FFFFFF" cx="1027.8" cy="508.8" r="5.2"/>
				<circle fill="#FFFFFF" cx="1052.3" cy="508.8" r="5.2"/>
				<circle fill="#FFFFFF" cx="1076.8" cy="508.8" r="5.2"/>
				<circle fill="#FFFFFF" cx="1101.3" cy="508.8" r="5.2"/>
				<circle fill="#FFFFFF" cx="1125.7" cy="508.8" r="5.2"/>
			</g>
		</g>
		<g>
			<path fill="#00A79D" d="M848,388.6l-54.1,19.9v43.7c0,19,9.3,36.8,25,48.1l29.1,20.9l29.1-20.9c15.7-11.3,25-29.1,25-48.1v-43.7
				L848,388.6z"/>
			<path fill="#009990" d="M822.6,495c-14-10-22.3-26.1-22.3-42.9v-39.9l47.7-16.3l47.7,16.3v39.9c0,16.8-8.3,32.9-22.3,42.9
				L848,513.3L822.6,495z"/>
			<path fill="#0CBFAE" d="M895.7,452.1v-39.9L848,395.9v117.4l25.4-18.2C887.4,485,895.7,469,895.7,452.1z"/>
		</g>
		<g>
			<g>
				<path fill="#FBB040" d="M319.8,545.7l-87.5,151.5c-6,10.5,1.5,23.5,13.6,23.5h174.9c12.1,0,19.6-13.1,13.6-23.5L347,545.7
					C340.9,535.3,325.8,535.3,319.8,545.7z"/>
				<path fill="#FBDA92" d="M245.9,708.4c-1.6,0-2.5-0.9-2.9-1.7c-0.4-0.8-0.8-2,0-3.3l87.5-151.5c0.8-1.4,2-1.7,2.9-1.7
					c0.9,0,2.1,0.3,2.9,1.7l87.5,151.5c0.8,1.4,0.4,2.6,0,3.3c-0.4,0.8-1.3,1.7-2.9,1.7H245.9z"/>
			</g>
			<g>
				<path fill="#FF5F5F" d="M321,683.3c0-4,1.1-7,3.2-9c2.1-2,5.2-3,9.3-3c3.9,0,7,1,9.1,3.1c2.2,2.1,3.2,5.1,3.2,8.9
					c0,3.7-1.1,6.7-3.3,8.8c-2.2,2.1-5.2,3.2-9.1,3.2c-4,0-7-1.1-9.2-3.2C322.1,690.1,321,687.2,321,683.3z M342.2,659.1h-17.3
					l-3.6-69.3h24.5L342.2,659.1z"/>
			</g>
		</g>
		<g>
			<polygon fill="#CF861E" points="586.7,178.8 692.4,257.8 798,178.8 			"/>
			<polygon fill="#CF861E" points="586.7,178.8 692.4,99.7 798,178.8 			"/>
			<rect x="596.7" y="131" fill="#231F20" width="191.3" height="116.5"/>
			<g>
				<path fill="#FFFFFF" d="M688.8,163c-9.3,0-18.4,4.1-18.4,16.9c0,5.4,3,10.1,7.4,13.2v2.8c0,2.2,1.5,4.1,3.6,4.6v-1.3
					c0-0.5,0.4-1,1-1c0.5,0,1,0.4,1,1v1.4h2.3v-1.4c0-0.5,0.4-1,1-1s1,0.4,1,1v1.4h2.3v-1.4c0-0.5,0.4-1,1-1c0.5,0,1,0.4,1,1v1.4
					h2.3v-1.4c0-0.5,0.4-1,1-1c0.5,0,1,0.4,1,1v1.3c2-0.5,3.6-2.4,3.6-4.6v-2.7c4.4-3.1,7.4-7.9,7.4-13.4
					C707,167.1,698.2,163,688.8,163z M684.6,186.3c-2.9,2.3-6.7,2.2-8.6-0.1s-1.1-6.1,1.8-8.4c2.9-2.3,6.7-2.2,8.6,0.1
					S687.4,184,684.6,186.3z M687,191.7l1.7-3l1.7,3H687z M701.4,186.2c-1.9,2.4-5.7,2.4-8.6,0.1s-3.6-6.1-1.8-8.4s5.7-2.4,8.6-0.1
					S703.3,183.8,701.4,186.2z"/>
				<g>
					<g>
						<g>
							<path fill="#FFFFFF" d="M713.9,216.9l-44.7-19.3c0.9-2.2-0.1-4.7-2.3-5.7s-4.7,0.1-5.7,2.3c-0.7,1.6-0.3,3.4,0.8,4.6
								c-1.6,0-3.2,1-3.9,2.6c-0.9,2.2,0.1,4.7,2.3,5.7s4.7-0.1,5.7-2.3l44.7,19.3c-0.9,2.2,0.1,4.7,2.3,5.7
								c2.2,0.9,4.7-0.1,5.7-2.3c0.7-1.6,0.3-3.4-0.8-4.6c1.6,0,3.2-1,3.9-2.6c0.9-2.2-0.1-4.7-2.3-5.7
								C717.4,213.7,714.9,214.7,713.9,216.9z"/>
						</g>
					</g>
					<g>
						<g>
							<path fill="#FFFFFF" d="M663.5,216.9l44.7-19.3c-0.9-2.2,0.1-4.7,2.3-5.7c2.2-0.9,4.7,0.1,5.7,2.3c0.7,1.6,0.3,3.4-0.8,4.6
								c1.6,0,3.2,1,3.9,2.6c0.9,2.2-0.1,4.7-2.3,5.7c-2.2,0.9-4.7-0.1-5.7-2.3l-44.7,19.3c0.9,2.2-0.1,4.7-2.3,5.7
								c-2.2,0.9-4.7-0.1-5.7-2.3c-0.7-1.6-0.3-3.4,0.8-4.6c-1.6,0-3.2-1-3.9-2.6c-0.9-2.2,0.1-4.7,2.3-5.7
								C660,213.7,662.6,214.7,663.5,216.9z"/>
						</g>
					</g>
				</g>
			</g>
			<polygon fill="#E89721" points="586.7,315.2 692.4,236.1 798,315.2 			"/>
			<g>
				<polygon fill="#FBB040" points="586.7,178.8 586.7,315.2 677.9,247 				"/>
				<polygon fill="#FBB040" points="706.8,247 798,315.2 798,178.8 				"/>
			</g>
		</g>
		<g>
			<polygon fill="#FFFFFF" points="1122.1,739.7 993.2,739.7 993.2,600.7 1018.9,574.7 1122.1,574.7 			"/>
			<polygon fill="#D1D3D4" points="993.2,600.7 1018.9,600.7 1018.9,574.7 			"/>
			<g>
				<rect x="1005.7" y="614.2" fill="#F1F2F2" width="105.3" height="7.2"/>
				<rect x="1005.7" y="629.6" fill="#F1F2F2" width="105.3" height="7.2"/>
				<rect x="1005.7" y="645" fill="#F1F2F2" width="105.3" height="7.2"/>
				<rect x="1005.7" y="660.4" fill="#F1F2F2" width="105.3" height="7.2"/>
				<rect x="1005.7" y="675.8" fill="#F1F2F2" width="105.3" height="7.2"/>
				<rect x="1005.7" y="691.2" fill="#F1F2F2" width="105.3" height="7.2"/>
				<rect x="1005.7" y="706.7" fill="#F1F2F2" width="105.3" height="7.2"/>
			</g>
		</g>
		<g>
			<polygon fill="#E83636" points="1124.9,650.4 1109.8,642.9 1094.5,650.4 1094.5,602.9 1124.9,602.9 			"/>
			<polygon fill="#FF5F5F" points="1116.2,646.1 1116.2,602.9 1103.1,602.9 1103.1,646.2 1109.8,642.9 			"/>
			<polygon fill="#FBB040" points="1109.7,557.8 1115.5,560.4 1121.8,560.4 1126.1,565.1 1131.9,567.7 1133.9,573.7 1138.1,578.5 
				1137.5,584.8 1139.4,590.9 1136.3,596.4 1135.6,602.7 1130.4,606.4 1127.3,612 1121,613.3 1115.9,617 1109.7,615.7 1103.4,617 
				1098.3,613.3 1092.1,612 1088.9,606.4 1083.7,602.7 1083.1,596.4 1079.9,590.9 1081.9,584.8 1081.2,578.5 1085.4,573.7 
				1087.4,567.7 1093.2,565.1 1097.5,560.4 1103.9,560.4 			"/>
			<circle fill="#E89721" cx="1109.7" cy="587.4" r="22.5"/>
			<circle fill="#FBB040" cx="1115.6" cy="597.7" r="7.6"/>
		</g>
		<g>
			<path fill="#E83636" d="M1049,598.1c0,1.4-0.5,2.6-1.5,3.4s-2.5,1.2-4.3,1.2c-1.7,0-3.2-0.3-4.5-1v-3.1c1.1,0.5,2,0.8,2.7,1
				c0.7,0.2,1.4,0.3,2,0.3c0.7,0,1.3-0.1,1.7-0.4c0.4-0.3,0.6-0.7,0.6-1.3c0-0.3-0.1-0.6-0.3-0.8c-0.2-0.2-0.4-0.5-0.8-0.7
				s-1-0.6-2.1-1.1c-1-0.5-1.7-0.9-2.2-1.3c-0.5-0.4-0.9-0.9-1.2-1.5c-0.3-0.6-0.4-1.2-0.4-2c0-1.4,0.5-2.5,1.4-3.3
				c0.9-0.8,2.3-1.2,3.9-1.2c0.8,0,1.6,0.1,2.4,0.3c0.7,0.2,1.5,0.5,2.3,0.8l-1.1,2.6c-0.8-0.3-1.5-0.6-2.1-0.7
				c-0.6-0.1-1.1-0.2-1.6-0.2c-0.6,0-1.1,0.1-1.5,0.4c-0.3,0.3-0.5,0.7-0.5,1.2c0,0.3,0.1,0.6,0.2,0.8c0.1,0.2,0.4,0.4,0.7,0.6
				c0.3,0.2,1,0.6,2.1,1.1c1.5,0.7,2.5,1.4,3,2.1C1048.7,596.2,1049,597.1,1049,598.1z"/>
			<path fill="#E83636" d="M1061.2,598.1c0,1.4-0.5,2.6-1.5,3.4s-2.5,1.2-4.3,1.2c-1.7,0-3.2-0.3-4.5-1v-3.1c1.1,0.5,2,0.8,2.7,1
				c0.7,0.2,1.4,0.3,2,0.3c0.7,0,1.3-0.1,1.7-0.4c0.4-0.3,0.6-0.7,0.6-1.3c0-0.3-0.1-0.6-0.3-0.8c-0.2-0.2-0.4-0.5-0.8-0.7
				s-1-0.6-2.1-1.1c-1-0.5-1.7-0.9-2.2-1.3c-0.5-0.4-0.9-0.9-1.2-1.5c-0.3-0.6-0.4-1.2-0.4-2c0-1.4,0.5-2.5,1.4-3.3
				c0.9-0.8,2.3-1.2,3.9-1.2c0.8,0,1.6,0.1,2.4,0.3c0.7,0.2,1.5,0.5,2.3,0.8l-1.1,2.6c-0.8-0.3-1.5-0.6-2.1-0.7
				c-0.6-0.1-1.1-0.2-1.6-0.2c-0.6,0-1.1,0.1-1.5,0.4c-0.3,0.3-0.5,0.7-0.5,1.2c0,0.3,0.1,0.6,0.2,0.8c0.1,0.2,0.4,0.4,0.7,0.6
				c0.3,0.2,1,0.6,2.1,1.1c1.5,0.7,2.5,1.4,3,2.1C1060.9,596.2,1061.2,597.1,1061.2,598.1z"/>
			<path fill="#E83636" d="M1064.1,602.5v-15.8h3.4v13.1h6.4v2.8H1064.1z"/>
		</g>
	</g>
</g>
</svg>
